<?xml version="1.0" standalone="no"?><!DOCTYPE svg PUBLIC "-//W3C//DTD SVG 1.1//EN" "http://www.w3.org/Graphics/SVG/1.1/DTD/svg11.dtd"><svg t="1679821633622" class="icon" viewBox="0 0 1024 1024" version="1.1" xmlns="http://www.w3.org/2000/svg" p-id="2441" xmlns:xlink="http://www.w3.org/1999/xlink" width="200" height="200"><path d="M711.111111 85.319111H312.888889c-125.681778 0-227.555556 101.888-227.555556 227.555556v398.222222c0 125.681778 101.873778 227.555556 227.555556 227.555555h398.222222c125.681778 0 227.555556-101.873778 227.555556-227.555555v-398.222222c0-125.667556-101.873778-227.555556-227.555556-227.555556m0 85.333333c78.421333 0 142.222222 63.800889 142.222222 142.222223v398.222222c0 78.421333-63.800889 142.222222-142.222222 142.222222H312.888889c-78.421333 0-142.222222-63.800889-142.222222-142.222222v-398.222222c0-78.421333 63.800889-142.222222 142.222222-142.222223h398.222222" fill="#1296db" p-id="2442"></path><path d="M577.024 785.905778a56.462222 56.462222 0 0 1-49.991111-30.051556l-57.671111-107.804444-27.52 43.704889a56.561778 56.561778 0 0 1-52.337778 26.424889 56.718222 56.718222 0 0 1-47.900444-33.877334l-76.032-173.226666-101.504 160.64a42.666667 42.666667 0 1 1-72.135112-45.582223L222.008889 420.266667a56.775111 56.775111 0 0 1 52.337778-26.353778 56.803556 56.803556 0 0 1 47.829333 33.848889l76.017778 173.141333 25.002666-39.722667a56.675556 56.675556 0 0 1 50.161778-26.552888 57.073778 57.073778 0 0 1 48.142222 29.994666l46.222223 86.4 83.228444-326.343111a56.291556 56.291556 0 0 1 54.286222-42.808889l0.896-0.014222a56.277333 56.277333 0 0 1 54.627556 41.173333l41.713778 144.981334 56.376889-99.669334a42.680889 42.680889 0 0 1 74.282666 42.026667l-89.742222 158.634667a56.860444 56.860444 0 0 1-104.192-12.288l-31.473778-109.368889-75.406222 295.708444a56.519111 56.519111 0 0 1-48.241778 42.424889c-2.375111 0.284444-4.721778 0.426667-7.054222 0.426667" fill="#1296db" p-id="2443"></path></svg>