<?xml version="1.0" standalone="no"?><!DOCTYPE svg PUBLIC "-//W3C//DTD SVG 1.1//EN" "http://www.w3.org/Graphics/SVG/1.1/DTD/svg11.dtd"><svg t="1679836233143" class="icon" viewBox="0 0 1280 1024" version="1.1" xmlns="http://www.w3.org/2000/svg" p-id="5780" xmlns:xlink="http://www.w3.org/1999/xlink" width="250" height="200"><path d="M1280 614.4c0-32-32-64-64-64-38.4 0-64 32-64 64 0 44.8-12.8 172.8-70.4 236.8-32 32-70.4 44.8-121.6 44.8-89.6 0-153.6-243.2-204.8-416-64-249.6-128-480-294.4-480C224 0 115.2 364.8 44.8 601.6c-12.8 51.2-25.6 96-38.4 121.6-12.8 32 6.4 70.4 38.4 83.2 32 12.8 70.4-6.4 83.2-38.4 12.8-32 25.6-76.8 44.8-134.4C217.6 460.8 320 128 460.8 128 531.2 128 595.2 358.4 640 512c70.4 249.6 140.8 512 326.4 512 83.2 0 153.6-25.6 204.8-83.2 115.2-121.6 108.8-320 108.8-326.4z" p-id="5781" fill="#1296db"></path></svg>