<?xml version="1.0" standalone="no"?><!DOCTYPE svg PUBLIC "-//W3C//DTD SVG 1.1//EN" "http://www.w3.org/Graphics/SVG/1.1/DTD/svg11.dtd"><svg t="1679841825875" class="icon" viewBox="0 0 1024 1024" version="1.1" xmlns="http://www.w3.org/2000/svg" p-id="3383" xmlns:xlink="http://www.w3.org/1999/xlink" width="200" height="200"><path d="M565.891909 897.212362h363.100762v49.656957H565.891909zM849.795934 372.796588l-207.485564-207.910237-454.339766 455.266881 207.486588 207.910237zM939.114193 206.065216L811.016723 78.012771C788.819165 55.822376 754.597759 58.59656 731.93869 80.323397a58.798151 58.798151 0 0 0-4.108575 4.114714l-1.227967-1.231037-62.060451 61.72276 207.486588 207.910236 62.060451-61.723783-1.869581-1.873673a60.403718 60.403718 0 0 0 4.584412-4.128018c22.195511-22.188348 24.50716-56.858986 2.310626-79.04938zM361.304348 844.943928L154.128845 637.840056 70.425468 926.305981l41.127699-11.504009v32.067347h331.143932v-49.656957H174.438403z" p-id="3384" fill="#2d4d2f"></path></svg>